#!OML:ASF I:\Actors\actors\Patient Classification 1\Patient 1\Session 1\Subject1.ASF
:FULLY-SPECIFIED
:DEGREES
608
root 0.729162 17.4682 9.36235 9.05803 -3.25546 -7.77027
lowerback 0.430055 1.55768 8.41925
upperback -8.89863 2.7257 1.95966
thorax -9.45303 0.762422 -2.82642
lowerneck -10.0675 2.60917 3.66336
upperneck 36.3485 2.43113 1.61513
head 14.1297 1.79344 0.369463
rclavicle -1.53934e-014 6.65929e-015
rhumerus -25.9133 40.7069 -103.702
rradius 95.0866
rwrist 9.4364
rhand -7.01797 -33.0312
rfingers 7.12502
rthumb 18.8535 -782.137
lclavicle -1.53934e-014 6.65929e-015
lhumerus -42.4522 -0.784805 81.9806
lradius 101.282
lwrist 89.915
lhand -43.3362 8.65857
lfingers 7.12502
lthumb -16.1821 38.0031
rfemur -4.40751 23.2873 23.9173
rtibia 5.1358
rfoot -12.4905 -25.0603
rtoes 0.0953061
lfemur 7.11795 -42.8555 -14.2265
ltibia -4.05385
lfoot -23.06 51.8112
ltoes 9.17298
609
root 0.720825 17.4664 9.37061 9.03321 -3.10018 -7.92353
lowerback 0.42239 1.54731 8.53813
upperback -8.95488 2.72881 2.04653
thorax -9.51434 0.755022 -2.79947
lowerneck -10.0605 2.8684 3.89426
upperneck 36.1168 2.84795 1.40186
head 14.0361 1.97795 0.300762
rclavicle 8.59744e-015 -6.16232e-015
rhumerus -26.9052 41.3501 -105.317
rradius 92.2352
rwrist 9.25513
rhand -6.54491 -33.3135
rfingers 7.12502
rthumb 19.3085 -782.375
lclavicle 8.59744e-015 -6.16232e-015
lhumerus -43.571 -2.90564 83.2853
lradius 100.597
lwrist 88.2939
lhand -43.0774 9.17557
lfingers 7.12502
lthumb -15.9329 38.5402
rfemur -4.23299 23.3643 24.1992
rtibia 5.02885
rfoot -12.5636 -25.2624
rtoes 0.249406
lfemur 7.33318 -43.1697 -14.1456
ltibia -4.186
lfoot -23.1042 52.0294
ltoes 9.14444
610
root 0.711167 17.4658 9.37893 9.01849 -2.92088 -7.968
lowerback 0.423934 1.54233 8.54867
upperback -8.9899 2.72631 2.04964
thorax -9.55528 0.750838 -2.80205
lowerneck -10.1677 3.07374 4.19094
upperneck 35.9542 3.18353 1.1206
head 14.0049 2.12707 0.184981
rclavicle -1.13432e-014 4.37326e-015
rhumerus -27.9413 41.7971 -106.839
rradius 89.9751
rwrist 9.85038
rhand -5.08848 -33.2511
rfingers 7.12502
rthumb 20.7084 -782.166
lclavicle -1.13432e-014 4.37326e-015
lhumerus -44.8622 -4.81769 84.7103
lradius 100.732
lwrist 87.0219
lhand -41.9284 9.21059
lfingers 7.12502
lthumb -14.8262 38.6602
rfemur -4.06345 23.4422 24.3443
rtibia 4.89294
rfoot -12.6524 -25.4942
rtoes 0.501622
lfemur 7.59395 -43.6641 -14.2355
ltibia -4.35929
lfoot -23.1652 52.3997
ltoes 9.12886
611
root 0.698967 17.4669 9.38835 9.00246 -2.85637 -8.01835
lowerback 0.471705 1.57826 8.41779
upperback -9.02577 2.77943 2.09321
thorax -9.62321 0.786086 -2.68927
lowerneck -10.3141 3.24926 4.42855
upperneck 35.8389 3.48295 0.847857
head 14.0038 2.25372 0.0798474
rclavicle -2.25869e-014 5.13858e-014
rhumerus -29.3457 42.2539 -108.38
rradius 88.4812
rwrist 10.4017
rhand -3.60076 -32.7208
rfingers 7.12502
rthumb 22.1373 -781.473
lclavicle -2.25869e-014 5.13858e-014
lhumerus -46.2505 -6.34378 86.3153
lradius 101.327
lwrist 86.3388
lhand -40.0564 9.5051
lfingers 7.12502
lthumb -13.0221 39.0786
rfemur -3.92351 23.5891 24.4948
rtibia 4.81473
rfoot -12.7363 -25.6682
rtoes 0.58837
lfemur 8.0251 -44.2637 -14.4401
ltibia -4.60807
lfoot -23.5686 52.9353
ltoes 9.46564
612
root 0.68004 17.4722 9.40034 8.92067 -3.2323 -8.13484
lowerback 0.616818 1.78359 8.16245
upperback -9.02063 3.06247 2.15877
thorax -9.68302 0.946182 -2.50582
lowerneck -10.4468 3.36664 4.58952
upperneck 35.6908 3.69153 0.640171
head 13.9803 2.3389 0.000497236
rclavicle -2.25124e-014 7.95139e-015
rhumerus -31.092 42.6365 -109.975
rradius 87.7567
rwrist 10.7385
rhand -2.81436 -31.9097
rfingers 7.12502
rthumb 22.8921 -780.571
lclavicle -2.25124e-014 7.95139e-015
lhumerus -47.6045 -7.62504 88.0484
lradius 102.136
lwrist 85.9361
lhand -37.1477 10.6381
lfingers 7.12502
lthumb -10.2171 40.3699
rfemur -3.79412 23.8563 24.7464
rtibia 4.90559
rfoot -12.7638 -25.5328
rtoes 0.368163
lfemur 8.87746 -44.7858 -14.896
ltibia -4.91454
lfoot -24.8764 53.6443
ltoes 10.6119
613
root 0.676074 17.473 9.41281 8.97567 -3.01195 -8.10571
lowerback 0.543726 1.85205 8.08532
upperback -9.0605 3.14397 2.13374
thorax -9.67656 0.991139 -2.49412
lowerneck -10.7311 3.44567 4.67083
upperneck 35.6848 3.9064 0.294118
head 14.0569 2.39809 -0.114325
rclavicle 7.55382e-015 -3.26504e-014
rhumerus -33.0329 42.9855 -111.531
rradius 87.6298
rwrist 11.3804
rhand -2.82401 -30.9397
rfingers 7.12502
rthumb 22.8829 -779.602
lclavicle 7.55382e-015 -3.26504e-014
lhumerus -48.8483 -8.64663 89.9101
lradius 103.04
lwrist 85.4235
lhand -34.5725 11.3446
lfingers 7.12502
lthumb -7.73218 41.1832
rfemur -3.75245 23.9244 24.7389
rtibia 4.84072
rfoot -12.9291 -25.7552
rtoes 0.726
lfemur 8.7434 -44.8123 -14.8048
ltibia -4.91021
lfoot -24.8857 53.4807
ltoes 10.5527
614
root 0.676729 17.4741 9.42587 8.97023 -2.64621 -7.99873
lowerback 0.472364 1.90829 7.99438
upperback -9.06926 3.20653 2.10581
thorax -9.63817 1.02994 -2.47611
lowerneck -11.028 3.49242 4.90379
upperneck 35.8878 4.16713 -0.411126
head 14.2497 2.45072 -0.391699
rclavicle -3.25883e-014 2.25124e-014
rhumerus -35.0148 43.3126 -112.927
rradius 87.8365
rwrist 12.3984
rhand -3.46407 -29.891
rfingers 7.12502
rthumb 22.2685 -778.628
lclavicle -3.25883e-014 2.25124e-014
lhumerus -49.9569 -9.31993 91.769
lradius 104.034
lwrist 84.4607
lhand -32.7149 12.4782
lfingers 7.12502
lthumb -5.93899 42.375
rfemur -3.61321 23.9056 24.664
rtibia 4.714
rfoot -13.0261 -26.0631
rtoes 0.916488
lfemur 8.56451 -44.8012 -14.7837
ltibia -4.86372
lfoot -24.469 53.2383
ltoes 9.94419
615
root 0.678564 17.4745 9.44063 8.90176 -2.28851 -7.91691
lowerback 0.408316 1.99415 7.94169
upperback -9.05062 3.31275 2.11021
thorax -9.56988 1.09044 -2.44782
lowerneck -10.807 3.55907 5.21444
upperneck 35.5644 4.54457 -1.35184
head 14.1008 2.53418 -0.775104
rclavicle -1.77664e-014 -1.76918e-014
rhumerus -36.9821 43.6029 -114.186
rradius 88.1856
rwrist 13.4357
rhand -4.64152 -29.1268
rfingers 7.12502
rthumb 21.1378 -777.994
lclavicle -1.77664e-014 -1.76918e-014
lhumerus -50.9933 -9.82227 93.7146
lradius 104.89
lwrist 83.2323
lhand -31.2393 11.9428
lfingers 7.12502
lthumb -4.51425 41.8747
rfemur -3.39472 23.8118 24.6541
rtibia 4.61102
rfoot -13.051 -26.3234
rtoes 0.786193
lfemur 8.54017 -44.8271 -14.8515
ltibia -4.83294
lfoot -24.1475 53.0249
ltoes 9.51896
616
root 0.68416 17.4724 9.45393 8.8369 -1.84994 -7.85879
lowerback 0.70134 2.09203 8.15032
upperback -9.30116 3.49931 1.97925
thorax -9.99629 1.13585 -2.73253
lowerneck -10.4302 3.58456 5.29508
upperneck 35.495 4.78254 -1.86252
head 14.0121 2.58906 -0.96582
rclavicle 2.71465e-015 -3.0911e-014
rhumerus -39.3392 43.3419 -115.755
rradius 88.648
rwrist 14.5849
rhand -6.05238 -28.9391
rfingers 7.12502
rthumb 19.782 -777.952
lclavicle 2.71465e-015 -3.0911e-014
lhumerus -52.2592 -10.2591 95.4707
lradius 105.621
lwrist 82.355
lhand -30.3687 10.5047
lfingers 7.12502
lthumb -3.67348 40.4528
rfemur -3.2334 23.6453 24.6544
rtibia 4.60683
rfoot -13.2124 -26.587
rtoes 0.889501
lfemur 8.36654 -44.6852 -14.7725
ltibia -4.77113
lfoot -23.4102 52.6206
ltoes 8.78592
